<svg width="81" height="94" viewBox="0 0 81 94" fill="none" xmlns="http://www.w3.org/2000/svg">
<path fill-rule="evenodd" clip-rule="evenodd" d="M56.4873 0.0920331C56.5566 -0.00558811 56.6925 -0.0293127 56.7913 0.0390425L63.5419 4.71259C63.6407 4.78095 63.6647 4.91549 63.5956 5.01311L54.1997 18.2802C58.7676 19.723 61.8796 21.2794 61.8796 21.2794C61.8796 21.2794 54.2729 34.216 41.3712 34.216C28.4695 34.216 19.3016 22.1588 19.3016 22.1588C19.3016 22.1588 22.5524 20.1077 27.3711 18.3485L17.0651 6.20512C16.9877 6.11382 16.9998 5.97772 17.0921 5.90113L23.4051 0.663637C23.4975 0.587035 23.6351 0.598942 23.7126 0.690235L36.7615 16.0659C37.8789 15.9409 39.0172 15.8711 40.1658 15.8711C41.8168 15.8711 43.4658 15.9952 45.0756 16.2058L56.4873 0.0920331ZM59.0398 34.8286C62.4827 32.3975 67.6925 26.052 67.6925 26.052C67.6925 26.052 81 36.4784 81 58.5864C81 80.6942 57.9934 94 57.9934 94C57.9934 94 47.0014 83.0244 44.3029 69.1113C41.6046 55.1981 48.2945 39.7492 48.2945 39.7492C48.2945 39.7492 55.5967 37.2598 59.0398 34.8286V34.8286ZM21.9602 34.8286C18.5173 32.3975 13.3075 26.052 13.3075 26.052C13.3075 26.052 0 36.4784 0 58.5864C0 80.6942 23.0066 94 23.0066 94C23.0066 94 33.9986 83.0244 36.6971 69.1113C39.3954 55.1981 32.7055 39.7492 32.7055 39.7492C32.7055 39.7492 25.4033 37.2598 21.9602 34.8286V34.8286Z" fill="url(#paint0_linear_383_1081)"/>
<defs>
<linearGradient id="paint0_linear_383_1081" x1="-8.10721" y1="7.04886" x2="66.2782" y2="107.428" gradientUnits="userSpaceOnUse">
<stop stop-color="white"/>
<stop offset="1" stop-color="white" stop-opacity="0"/>
</linearGradient>
</defs>
</svg>
