<svg width="94" height="94" viewBox="0 0 94 94" fill="none" xmlns="http://www.w3.org/2000/svg">
<path fill-rule="evenodd" clip-rule="evenodd" d="M42.1757 83.1404C43.9615 83.4138 45.7905 83.5555 47.6528 83.5555C67.4813 83.5555 83.5555 67.4814 83.5555 47.6529C83.5555 27.8242 67.4813 11.75 47.6528 11.75C46.3225 11.75 45.0089 11.8224 43.7162 11.9634C53.5523 19.4152 60.0555 32.3239 60.0555 47C60.0555 62.4292 52.8676 75.905 42.1757 83.1404ZM47 94C72.9574 94 94 72.9574 94 47C94 21.0426 72.9574 0 47 0C21.0426 0 0 21.0426 0 47C0 72.9574 21.0426 94 47 94Z" fill="url(#paint0_linear_383_1098)"/>
<defs>
<linearGradient id="paint0_linear_383_1098" x1="-9.40837" y1="7.04886" x2="61.1275" y2="117.509" gradientUnits="userSpaceOnUse">
<stop stop-color="white"/>
<stop offset="1" stop-color="white" stop-opacity="0"/>
</linearGradient>
</defs>
</svg>
