<svg width="82" height="94" viewBox="0 0 82 94" fill="none" xmlns="http://www.w3.org/2000/svg">
<path fill-rule="evenodd" clip-rule="evenodd" d="M45.549 46.7946C46.1845 46.4061 46.7237 45.592 47.1585 44.6873C52.8809 47.0318 56.9023 52.5719 56.9023 59.0327C56.9023 67.6157 49.8053 74.5738 41.0509 74.5738C37.4572 74.5738 34.1428 73.4011 31.4841 71.4251C30.6119 71.0111 29.8943 70.6135 29.3072 70.2879C28.3964 69.7833 27.7991 69.4522 27.4252 69.504C26.332 69.6551 26.6493 70.6634 26.9378 71.5793C27.1336 72.2015 27.3162 72.7812 27.0336 73.0202C26.738 73.2706 25.7805 72.3554 24.6616 71.2862C23.1386 69.8304 21.3167 68.089 20.4575 68.6121C19.7782 69.0257 20.4377 70.1477 21.245 71.521L21.3049 71.6229C21.646 72.2034 22.0412 72.7946 22.4018 73.334C23.1349 74.4302 23.7254 75.3136 23.43 75.4631C23.0728 75.6437 20.5846 73.9602 18.4878 71.6229C17.6784 70.7209 16.8946 69.743 16.166 68.8344V68.8343C14.5714 66.8452 13.2428 65.1883 12.497 65.3845C11.5999 65.6206 12.2786 67.4757 13.2758 69.2607C13.7421 70.0955 14.2906 70.9456 14.7655 71.6816V71.6818C15.5041 72.8263 16.0647 73.6949 15.8614 73.8018C15.5871 73.9455 13.173 71.5858 11.5334 68.6121C10.5595 66.8458 9.74175 64.8938 9.07971 63.3136C8.36176 61.5997 7.82695 60.3232 7.4748 60.1947C6.25126 59.7484 6.25126 62.2491 6.74199 65.8584C6.806 66.3293 6.90132 66.8232 7.0187 67.326C11.7776 82.7613 26.3966 94 43.6928 94C64.8494 94 82 77.185 82 56.4426C82 36.7004 66.4638 20.5161 46.7244 19.0009C46.7493 18.0708 47.2336 16.2266 47.2336 16.2266C47.2336 16.2266 50.7183 7.77468 50.9026 5.96861C50.9147 5.84875 50.9291 5.71849 50.9447 5.57976C51.1617 3.62834 51.5656 0 48.4517 0C46.7887 0 46.0155 1.24011 45.1311 2.65842V2.65844C44.7915 3.20292 44.4355 3.77368 44.0065 4.3106C40.9172 8.17793 35.7224 13.0074 32.7769 15.5803C26.551 21.0185 20.4427 25.488 16.8801 28.0946L16.8799 28.0948C15.2596 29.2803 14.166 30.0806 13.8276 30.4112C11.2771 32.9037 2.13216 49.4392 2.13216 49.4392C2.13216 49.4392 -0.825203 54.7444 0.225968 55.8204C1.27714 56.8963 3.81204 56.6497 3.81204 56.6497C3.81204 56.6497 37.8665 48.8181 40.9154 48.2005C41.7363 48.0342 42.3157 47.9382 42.7606 47.8645C43.9684 47.6646 44.1853 47.6286 45.549 46.7946ZM21.4712 36.7305C19.6432 38.4723 16.6116 42.6297 16.6116 42.6297C16.6116 42.6297 22.2459 42.9776 25.349 40.0209C28.4522 37.0639 27.7413 32.0248 27.7413 32.0248C27.7413 32.0248 23.299 34.9887 21.4712 36.7305Z" fill="url(#paint0_linear_383_1058)"/>
<defs>
<linearGradient id="paint0_linear_383_1058" x1="-8.2073" y1="7.04886" x2="65.9079" y2="108.298" gradientUnits="userSpaceOnUse">
<stop stop-color="white"/>
<stop offset="1" stop-color="white" stop-opacity="0"/>
</linearGradient>
</defs>
</svg>
