<svg width="94" height="94" viewBox="0 0 94 94" fill="none" xmlns="http://www.w3.org/2000/svg">
<path fill-rule="evenodd" clip-rule="evenodd" d="M18.8605 74.5375L33.9381 70.1656L46.9608 93.9769C46.9779 94.0077 47.0221 94.0077 47.039 93.9769L60.0618 70.1656L75.1395 74.5375C75.1733 74.5472 75.2047 74.5158 75.1946 74.482L70.822 59.7028L93.9767 47.039C94.0077 47.0221 94.0077 46.9779 93.9769 46.961L70.6312 34.1927L75.1946 18.7685C75.2047 18.7347 75.1733 18.7033 75.1395 18.713L59.7082 23.1876L47.039 0.0231681C47.0221 -0.00772215 46.9779 -0.00772301 46.961 0.0231674L34.2919 23.1876L18.8605 18.713C18.8267 18.7033 18.7953 18.7347 18.8054 18.7685L23.3688 34.1927L0.0231681 46.961C-0.00772215 46.9779 -0.00772301 47.0221 0.0231674 47.039L23.1778 59.7028L18.8054 74.482C18.7953 74.5158 18.8267 74.5472 18.8605 74.5375ZM30.5606 47.1624L41.2422 53.0044L47.0842 63.6858C47.1011 63.7169 47.1455 63.7169 47.1624 63.6858L53.0044 53.0044L63.6858 47.1624C63.7167 47.1455 63.7167 47.1011 63.6858 47.0842L53.0044 41.2422L47.1624 30.5607C47.1455 30.5297 47.1011 30.5297 47.0842 30.5607L41.2422 41.2422L30.5606 47.0842C30.5297 47.1011 30.5297 47.1455 30.5606 47.1624Z" fill="url(#paint0_linear_383_1125)"/>
<defs>
<linearGradient id="paint0_linear_383_1125" x1="-9.40837" y1="7.04886" x2="61.1275" y2="117.509" gradientUnits="userSpaceOnUse">
<stop stop-color="white"/>
<stop offset="1" stop-color="white" stop-opacity="0"/>
</linearGradient>
</defs>
</svg>
