<svg width="88" height="94" viewBox="0 0 88 94" fill="none" xmlns="http://www.w3.org/2000/svg">
<path fill-rule="evenodd" clip-rule="evenodd" d="M13.1178 7.81478C14.2588 3.3233 18.3402 0 23.2 0C26.8453 0 30.0526 1.86985 31.9096 4.7H34.9505C36.8397 2.76705 39.4792 1.56667 42.4 1.56667C46.6823 1.56667 50.3601 4.14705 51.9545 7.83334H54.5004C56.0957 6.84043 57.9807 6.26666 59.9999 6.26666C64.2824 6.26666 67.9601 8.84705 69.5544 12.5333H76.4776C76.5367 12.5333 76.5922 12.5492 76.6399 12.5769C76.9561 12.5481 77.2763 12.5333 77.5998 12.5333C83.3437 12.5333 87.9998 17.1755 87.9998 22.9019V53.9924L88 54.05L87.9998 54.1076V54.5554C87.9998 54.7451 87.9947 54.934 87.9843 55.122C87.3586 76.6902 67.9057 94 43.9999 94C19.6994 94 0 76.1137 0 54.05C0 43.3999 4.58996 33.7231 12.0718 26.5614C12.0531 36.9442 12.229 47.6782 13.0399 47.4941C15.2111 47.0006 13.5147 14.8416 13.1178 7.81478Z" fill="url(#paint0_linear_383_1064)"/>
<defs>
<linearGradient id="paint0_linear_383_1064" x1="-8.80784" y1="7.04886" x2="63.5806" y2="113.175" gradientUnits="userSpaceOnUse">
<stop stop-color="white"/>
<stop offset="1" stop-color="white" stop-opacity="0"/>
</linearGradient>
</defs>
</svg>
