<svg width="71" height="94" viewBox="0 0 71 94" fill="none" xmlns="http://www.w3.org/2000/svg">
<path fill-rule="evenodd" clip-rule="evenodd" d="M53.3452 72.5919C54.5159 68.3452 52.2435 59.6147 52.2435 59.6147C52.2435 59.6147 50.5954 66.727 48.0201 69.3557C45.823 71.5979 43.1313 73.1531 39.271 73.5618C42.4272 72.0409 44.5978 68.8697 44.5978 65.2043C44.5978 60.0589 40.3206 55.8876 35.0446 55.8876C29.7685 55.8876 25.4912 60.0589 25.4912 65.2043C25.4912 66.6095 25.8104 67.9422 26.3817 69.137C23.0817 66.5289 22.5628 62.3474 22.5628 62.3474C22.5628 62.3474 18.8779 77.5251 29.0314 84.6647C39.1847 91.8043 59.0749 85.6674 59.0749 85.6674C59.0749 85.6674 30.6109 105.537 9.5188 83.9116C-8.6503 65.283 4.77664 40.7584 4.77664 40.7584C4.77664 40.7584 4.19677 43.0335 4.19677 45.6745C4.19677 48.3155 5.64011 50.3249 5.64011 50.3249C5.64011 50.3249 9.94555 41.3216 13.2963 37.6602C16.4675 34.1951 20.4427 31.3846 23.8763 28.9572C26.5194 27.0885 28.8415 25.4468 30.2284 23.9081C37.8671 15.4345 33.1834 0 33.1834 0C33.1834 0 41.7943 7.53102 44.1982 17.2574C45.1146 20.9649 44.525 25.1834 43.998 28.9557C43.1423 35.0796 42.4507 40.028 48.6326 39.7069C58.6226 39.1879 49.9416 23.9081 49.9416 23.9081C49.9416 23.9081 72.6026 35.7242 70.9097 56.3899C69.2165 77.0556 46.14 81.7538 46.14 81.7538C46.14 81.7538 52.1743 76.8386 53.3452 72.5919Z" fill="url(#paint0_linear_9_1573)"/>
<defs>
<linearGradient id="paint0_linear_9_1573" x1="-7.10632" y1="7.04886" x2="69.5612" y2="97.7346" gradientUnits="userSpaceOnUse">
<stop stop-color="white"/>
<stop offset="1" stop-color="white" stop-opacity="0"/>
</linearGradient>
</defs>
</svg>
