<svg width="94" height="82" viewBox="0 0 94 82" fill="none" xmlns="http://www.w3.org/2000/svg">
<path fill-rule="evenodd" clip-rule="evenodd" d="M32.8105 81.5082C46.5806 81.5082 58.3695 73.8974 63.2364 63.1084C63.2959 62.9768 43.6967 68.1737 44.3216 66.3366C44.6007 65.5163 56.6151 61.1515 65.3683 56.0605C70.3994 53.1343 72.7161 46.9399 72.7161 46.9399C72.7161 46.9399 64.2401 51.0324 59.9552 52.0705C51.3204 54.1629 43.7195 53.9376 43.7195 53.7196C43.7195 53.2482 56.3406 50.8633 73.8827 40.2326C82.134 35.2323 84.3751 26.6193 84.3751 26.6193C84.3751 26.6193 75.3035 31.993 69.8196 33.7671C56.8145 37.9743 44.9466 39.2421 44.9466 38.6729C44.9466 37.454 55.3907 34.5979 66.464 29.262C72.2215 26.4877 77.2078 22.8631 82.986 18.8323C92.4407 12.2373 94 0.491638 94 0.491638C94 0.491638 84.6749 6.47296 80.1241 8.4593C61.3463 16.6556 44.7656 20.955 32.8105 21.8858C14.7639 23.2909 0 35.8128 0 52.0705C0 68.3285 14.6897 81.5082 32.8105 81.5082Z" fill="url(#paint0_linear_383_1092)"/>
<defs>
<linearGradient id="paint0_linear_383_1092" x1="-9.40837" y1="6.5669" x2="47.2051" y2="109.433" gradientUnits="userSpaceOnUse">
<stop stop-color="white"/>
<stop offset="1" stop-color="white" stop-opacity="0"/>
</linearGradient>
</defs>
</svg>
