<svg width="95" height="92" viewBox="0 0 95 92" fill="none" xmlns="http://www.w3.org/2000/svg">
<path fill-rule="evenodd" clip-rule="evenodd" d="M15.8926 80.019C15.5305 79.7127 15.1724 79.4005 14.8184 79.0823C-3.86754 62.2818 -3.86754 35.0427 14.8184 18.2422C33.5043 1.44157 93.0451 0.317627 93.0451 0.317627C93.0451 0.317627 101.172 62.2818 82.4864 79.0823C65.8908 94.0034 40.1376 95.6726 21.4932 84.0901L36.5162 67.5144L60.5319 62.8526L40.9281 61.0906L53.3866 49.6853L67.5681 46.8921L56.3542 43.9062L67.5681 25.7178L51.6174 41.8039L45.4578 33.9889L47.6261 46.8921L36.5162 58.1528L31.3663 43.906V62.8526L15.8926 80.019Z" fill="url(#paint0_linear_377_53)"/>
<defs>
<linearGradient id="paint0_linear_377_53" x1="-8.60442" y1="7.1689" x2="59.1168" y2="116.28" gradientUnits="userSpaceOnUse">
<stop stop-color="white"/>
<stop offset="1" stop-color="white" stop-opacity="0"/>
</linearGradient>
</defs>
</svg>
