<svg width="94" height="68" viewBox="0 0 94 68" fill="none" xmlns="http://www.w3.org/2000/svg">
<path fill-rule="evenodd" clip-rule="evenodd" d="M20.7028 67.7161C20.6773 67.7161 20.6595 67.6911 20.668 67.6671L44.6665 0.0440652C44.6718 0.0293634 44.6858 0.0195312 44.7014 0.0195312H70.3205C70.3361 0.0195312 70.3503 0.0294367 70.3554 0.04423L93.998 67.6673C94.0062 67.6912 93.9884 67.7161 93.9631 67.7161H21.424H20.7028ZM0.0369587 67.9807C0.0111831 67.9807 -0.00666175 67.9551 0.00237952 67.9311L17.8734 20.3523C17.8788 20.3378 17.8926 20.3283 17.908 20.3283H33.4358C33.4616 20.3283 33.4794 20.3537 33.4705 20.3777L16.1898 67.9565C16.1845 67.971 16.1706 67.9807 16.1551 67.9807H0.0369587Z" fill="url(#paint0_linear_383_1069)"/>
<defs>
<linearGradient id="paint0_linear_383_1069" x1="-9.40837" y1="5.11579" x2="33.3767" y2="97.7895" gradientUnits="userSpaceOnUse">
<stop stop-color="white"/>
<stop offset="1" stop-color="white" stop-opacity="0"/>
</linearGradient>
</defs>
</svg>
