<svg width="87" height="94" viewBox="0 0 87 94" fill="none" xmlns="http://www.w3.org/2000/svg">
<path fill-rule="evenodd" clip-rule="evenodd" d="M80.137 78.0696C80.137 78.0696 68.323 87.5769 44.8136 83.6426C26.9773 80.6576 17.4643 60.9291 17.4643 50.3246C17.4643 25.1824 36.0098 19.4608 48.5479 19.4608C61.0859 19.4608 69.2651 31.7262 69.2651 41.2227C69.2651 50.7192 62.5712 59.0255 52.154 59.0255C41.737 59.0255 38.6517 51.6874 38.6517 44.9409C38.6517 38.1946 44.0915 35.8177 49.0526 35.8177C54.0138 35.8177 55.7125 40.0676 55.7125 43.7202C55.7125 47.3731 52.888 48.6811 50.5321 48.6811C48.1763 48.6811 47.9433 47.4885 47.0417 46.2352C46.1399 44.982 48.1917 40.2382 44.8136 40.2382C41.4356 40.2382 40.8059 45.6917 40.8059 45.6917C40.8059 45.6917 42.0374 56.2188 52.154 56.0372C62.2707 55.8555 67.0701 48.0078 65.6753 40.2382C64.2805 32.4684 56.7656 24.2122 43.5766 25.8805C30.3876 27.5488 25.0026 40.9203 27.3762 55.2099C29.7498 69.4996 46.8108 77.7791 60.2251 74.8003C73.6395 71.8216 87 62.0772 87 37.3714C87 12.6655 65.6753 -2.18504 40.2476 0.26241C14.8198 2.70985 -0.964557 25.0159 0.0457816 51.8171C1.05612 78.6182 26.4013 93.2149 47.8332 93.9672C69.2651 94.7197 82.4038 82.2712 82.4038 82.2712C82.4038 82.2712 85.3586 79.6274 84.2 77.5628C83.0417 75.4983 80.137 78.0696 80.137 78.0696Z" fill="url(#paint0_linear_383_1102)"/>
<defs>
<linearGradient id="paint0_linear_383_1102" x1="-8.70775" y1="7.04886" x2="63.9791" y2="112.401" gradientUnits="userSpaceOnUse">
<stop stop-color="white"/>
<stop offset="1" stop-color="white" stop-opacity="0"/>
</linearGradient>
</defs>
</svg>
