<svg width="95" height="76" viewBox="0 0 95 76" fill="none" xmlns="http://www.w3.org/2000/svg">
<path fill-rule="evenodd" clip-rule="evenodd" d="M73.3504 36.0079C73.345 36.0005 73.3428 35.9913 73.3443 35.9822L79.3925 0.862097C79.3952 0.845926 79.4095 0.834106 79.4258 0.834106H81.34C81.3548 0.834106 81.3678 0.84364 81.3722 0.857653L94.9984 43.8212C95.0027 43.8345 94.9981 43.8493 94.987 43.8579L84.9402 51.6693C84.9252 51.6809 84.9035 51.6779 84.8922 51.6626L73.3504 36.0079ZM0 59.2899C0 59.3045 0.00940557 59.3174 0.0233104 59.322L20.7337 66.0654C20.7437 66.0687 20.7548 66.067 20.7635 66.0611L67.0561 34.2353C67.0639 34.23 67.0691 34.2217 67.0704 34.2125L72.0346 1.04217C72.0378 1.02182 72.0218 1.00352 72.0013 1.00352H30.9975C30.9873 1.00352 30.9779 1.00799 30.9714 1.01571L0.00778169 38.2126C0.00275153 38.2187 0 38.2263 0 38.2342V59.2899ZM29.3638 67.7835L51.9895 75.1641C51.9997 75.1674 52.011 75.1658 52.0197 75.1595L78.9571 55.9178C78.9721 55.9073 78.9758 55.8868 78.9657 55.8717L68.8676 40.9075C68.857 40.8918 68.8359 40.8878 68.8204 40.8985L29.3638 67.7835Z" fill="url(#paint0_linear_383_980)"/>
<defs>
<linearGradient id="paint0_linear_383_980" x1="-9.50846" y1="6.40808" x2="39.6561" y2="104.809" gradientUnits="userSpaceOnUse">
<stop stop-color="white"/>
<stop offset="1" stop-color="white" stop-opacity="0"/>
</linearGradient>
</defs>
</svg>
