<svg width="95" height="82" viewBox="0 0 95 82" fill="none" xmlns="http://www.w3.org/2000/svg">
<path fill-rule="evenodd" clip-rule="evenodd" d="M0.00948344 41.0574C-0.00315516 41.0361 -0.0031615 41.0096 0.00946654 40.9881L23.8975 0.567558C23.91 0.546591 23.9328 0.533691 23.9573 0.533691H71.3047C71.3293 0.533691 71.3522 0.546702 71.3646 0.567852L94.9907 40.9885C95.0031 41.0096 95.0031 41.0359 94.9907 41.057L71.3646 81.4322C71.3522 81.4534 71.3293 81.4664 71.3047 81.4664H23.9573C23.9328 81.4664 23.91 81.4536 23.8975 81.4326L0.00948344 41.0574ZM69.5091 41.0001C69.5091 53.034 59.6586 62.7896 47.5075 62.7896C35.3564 62.7896 25.5059 53.034 25.5059 41.0001C25.5059 28.9659 35.3564 19.2105 47.5075 19.2105C59.6586 19.2105 69.5091 28.9659 69.5091 41.0001Z" fill="url(#paint0_linear_383_1122)"/>
<defs>
<linearGradient id="paint0_linear_383_1122" x1="-9.50846" y1="6.60266" x2="46.6933" y2="109.914" gradientUnits="userSpaceOnUse">
<stop stop-color="white"/>
<stop offset="1" stop-color="white" stop-opacity="0"/>
</linearGradient>
</defs>
</svg>
