<svg width="95" height="94" viewBox="0 0 95 94" fill="none" xmlns="http://www.w3.org/2000/svg">
<path fill-rule="evenodd" clip-rule="evenodd" d="M94.4119 63.6209C94.4119 80.3988 73.3693 94 47.4119 94C21.4544 94 0.411865 80.3988 0.411865 63.6209C0.411865 47.303 44.8695 2.48742 47.3077 0.0418264C47.3635 -0.0139425 47.4605 -0.013942 47.516 0.0418269C49.9542 2.48742 94.4119 47.303 94.4119 63.6209ZM39.5771 84.2607C15.7271 80.8749 19.8083 63.7338 19.8083 63.7338C19.8083 63.7338 26.3209 74.0812 42.1254 77.433C57.9296 80.7847 77.0289 75.8689 77.0289 75.8689C77.0289 75.8689 63.4272 87.6463 39.5771 84.2607Z" fill="url(#paint0_linear_383_1117)"/>
<defs>
<linearGradient id="paint0_linear_383_1117" x1="-8.99651" y1="7.04886" x2="61.5393" y2="117.509" gradientUnits="userSpaceOnUse">
<stop stop-color="white"/>
<stop offset="1" stop-color="white" stop-opacity="0"/>
</linearGradient>
</defs>
</svg>
