<svg width="63" height="25" viewBox="0 0 63 25" fill="none" xmlns="http://www.w3.org/2000/svg">
<path d="M24.8208 13.8877L30.4676 19.1595C30.702 19.3783 31.0114 19.5002 31.3333 19.5002C31.6551 19.5002 31.9645 19.3783 32.1989 19.1595L37.8458 13.8877C38.7958 13.0033 39.3333 11.7627 39.3333 10.4658V10.2845C39.3333 8.10017 37.7551 6.23767 35.602 5.87829C34.177 5.64079 32.727 6.10642 31.7083 7.12517L31.3333 7.50017L30.9583 7.12517C29.9395 6.10642 28.4895 5.64079 27.0645 5.87829C24.9114 6.23767 23.3333 8.10017 23.3333 10.2845V10.4658C23.3333 11.7627 23.8708 13.0033 24.8208 13.8877Z" fill="#424242"/>
</svg>
