<svg width="18" height="19" viewBox="0 0 18 19" fill="none" xmlns="http://www.w3.org/2000/svg">
<path d="M13.1248 7.92883C13.1248 5.64883 11.2798 3.80383 8.99976 3.80383C6.71976 3.80383 4.87476 5.64883 4.87476 7.92883C4.87476 9.95383 6.32976 11.6263 8.24976 11.9788L8.24976 13.5538H6.74976L6.74976 15.0538H8.24976V16.5538H9.74976L9.74976 15.0538H11.2498V13.5538H9.74976V11.9788C11.6698 11.6263 13.1248 9.95383 13.1248 7.92883ZM6.37476 7.92883C6.37476 6.48133 7.55226 5.30383 8.99976 5.30383C10.4473 5.30383 11.6248 6.48133 11.6248 7.92883C11.6248 9.37633 10.4473 10.5538 8.99976 10.5538C7.55226 10.5538 6.37476 9.37633 6.37476 7.92883Z" fill="#424242"/>
</svg>
