<svg width="18" height="19" viewBox="0 0 18 19" fill="none" xmlns="http://www.w3.org/2000/svg">
<path d="M7.125 9.05335C8.5725 9.05335 9.75 10.2308 9.75 11.6783C9.75 13.1258 8.5725 14.3033 7.125 14.3033C5.6775 14.3033 4.5 13.1258 4.5 11.6783C4.5 10.2308 5.6775 9.05335 7.125 9.05335ZM7.125 7.55334C4.845 7.55334 3 9.39834 3 11.6783C3 13.9583 4.845 15.8033 7.125 15.8033C9.405 15.8033 11.25 13.9583 11.25 11.6783C11.25 10.8083 10.98 10.0058 10.5225 9.33835L13.5 6.36835V8.30335H15V3.80334L10.5 3.80334V5.30334L12.435 5.30334L9.4575 8.28085C8.7975 7.82335 7.995 7.55334 7.125 7.55334Z" fill="#424242"/>
</svg>
