<svg width="63" height="25" viewBox="0 0 63 25" fill="none" xmlns="http://www.w3.org/2000/svg">
<path d="M34.6667 12.5C34.6667 13.1938 34.6292 13.8625 34.5636 14.5H28.773C28.7042 13.8625 28.6699 13.1938 28.6699 12.5C28.6699 11.8063 28.7074 11.1375 28.773 10.5H34.5636C34.6324 11.1375 34.6667 11.8063 34.6667 12.5ZM35.5667 10.5H39.4136C39.5792 11.1406 39.6667 11.8094 39.6667 12.5C39.6667 13.1906 39.5792 13.8594 39.4136 14.5H35.5667C35.6324 13.8562 35.6667 13.1875 35.6667 12.5C35.6667 11.8125 35.6324 11.1438 35.5667 10.5ZM39.0855 9.5H35.4386C35.1261 7.50312 34.5074 5.83125 33.7105 4.7625C36.1574 5.40938 38.148 7.18438 39.0824 9.5H39.0855ZM34.4261 9.5H28.9074C29.098 8.3625 29.3917 7.35625 29.7511 6.54063C30.0792 5.80313 30.4449 5.26875 30.798 4.93125C31.148 4.6 31.4386 4.5 31.6667 4.5C31.8949 4.5 32.1855 4.6 32.5355 4.93125C32.8886 5.26875 33.2542 5.80313 33.5824 6.54063C33.9449 7.35313 34.2355 8.35938 34.4261 9.5ZM27.8949 9.5H24.248C25.1855 7.18438 27.173 5.40938 29.623 4.7625C28.8261 5.83125 28.2074 7.50312 27.8949 9.5ZM23.9199 10.5H27.7667C27.7011 11.1438 27.6667 11.8125 27.6667 12.5C27.6667 13.1875 27.7011 13.8562 27.7667 14.5H23.9199C23.7542 13.8594 23.6667 13.1906 23.6667 12.5C23.6667 11.8094 23.7542 11.1406 23.9199 10.5ZM29.7511 18.4563C29.3886 17.6438 29.098 16.6375 28.9074 15.5H34.4261C34.2355 16.6375 33.9417 17.6438 33.5824 18.4563C33.2542 19.1938 32.8886 19.7281 32.5355 20.0656C32.1855 20.4 31.8949 20.5 31.6667 20.5C31.4386 20.5 31.148 20.4 30.798 20.0688C30.4449 19.7313 30.0792 19.1969 29.7511 18.4594V18.4563ZM27.8949 15.5C28.2074 17.4969 28.8261 19.1687 29.623 20.2375C27.173 19.5906 25.1855 17.8156 24.248 15.5H27.8949ZM39.0855 15.5C38.148 17.8156 36.1605 19.5906 33.7136 20.2375C34.5105 19.1687 35.1261 17.4969 35.4417 15.5H39.0886H39.0855Z" fill="#424242"/>
</svg>
