<svg width="16" height="17" viewBox="0 0 16 17" fill="none" xmlns="http://www.w3.org/2000/svg">
<path d="M8 3.30396C7.1775 3.30396 6.5 3.98146 6.5 4.80396C6.5 4.97996 6.537 5.14596 6.594 5.30396H4.094L4.0155 5.71046L2.5155 13.2105L2.5 13.257V14.304H13.5V13.257L13.4845 13.2105L11.9845 5.71046L11.906 5.30396H9.406C9.46606 5.14399 9.49786 4.97481 9.5 4.80396C9.5 3.98146 8.8225 3.30396 8 3.30396ZM8 4.30396C8.2815 4.30396 8.5 4.52296 8.5 4.80396C8.5 5.08546 8.281 5.30396 8 5.30396C7.7185 5.30396 7.5 5.08496 7.5 4.80396C7.5 4.52246 7.719 4.30396 8 4.30396ZM4.906 6.30396H11.094L12.5 13.304H3.5L4.906 6.30396Z" fill="#424242"/>
</svg>
